{"title":"Fairview Falls (2011) WEBRip","uid":8348276,"size":1232521699,"categoryP":"video","categoryS":"movies","magnet":"?xt=urn:btih:391a81d463ffcc07ddbb0ea5672b77f6b2e8bc1d&amp;dn=Fairview+Falls+%282011%29+WEBRip&amp;tr=udp%3A%2F%2Ftracker.openbittorrent.com%3A80&amp;tr=udp%3A%2F%2Fopen.demonii.com%3A1337&amp;tr=udp%3A%2F%2Ftracker.coppersurfer.tk%3A6969&amp;tr=udp%3A%2F%2Fexodus.desync.com%3A6969","seeders":0,"leechers":1,"uploader":"RadioResearch","files":3,"time":1365263293,"description":"*******************************************************************************\n                         Fairview Falls (2011) WEBRip\n*******************************************************************************\n\n-------------------------------------------------------------------------------\n                              General Information\n-------------------------------------------------------------------------------\nType.................: Movie\n\n\n\nVideo Format.........: AVI\nVideo Bitrate........: 1692\nResolution...........: 640 x 480\nColor................: 8 bit\nFPS..................: 29.97\nSource...............: WEB 4:3\nOriginal Format......: NTSC\nGenre................: Horror\nIMDb Rating..........: None Yet\nMovie Information....: http://www.imdb.com/title/tt1477858/\n\n-------------------------------------------------------------------------------\n                               Post Information\n-------------------------------------------------------------------------------\nPosted by............: RadioResearch\nPosted on............: 4/6/2013\n\n-------------------------------------------------------------------------------\n                                 Release Notes\n-------------------------------------------------------------------------------\nSEEDBOX SUPPORTED!!\n\nIt was the summer after graduation when a small circle of friends set off into \nthe woods on a dare and made their way to the creek where a series of \nritualistic animal murders had been discovered. When they returned from they \nwoods they were not alone. When the son of the town mafia boss is murdered, it \nsets off a chain of events that leads to the discovery of a new threat forged by \nthe most sinister evil Fairview Falls has ever seen.\n\nOK, the big pull for this video was Debbie Rochon, but it turns out she only has \nabout a 5-6 minute cameo.  Disappointing, but the film was pretty good for being \nshot direct to video.  The actors really acted and the plot made sense, so \nperhaps it is not impossible for low budget flicks to actually be good.  Judge \nfor yourself.\n\nEnjoy!\n\nRadioResearch\n\nGeneral\nComplete name                            : G:DownloadsFairview Falls (2011) \nWEBRipFairview Falls.avi\nFormat                                   : AVI\nFormat/Info                              : Audio Video Interleave\nFile size                                : 1.15 GiB\nDuration                                 : 1h 37mn\nOverall bit rate                         : 1 692 Kbps\n\nVideo\nID                                       : 0\nFormat                                   : MPEG-4 Visual\nFormat profile                           : Simple@L3\nFormat settings, BVOP                    : No\nFormat settings, QPel                    : No\nFormat settings, GMC                     : No warppoints\nFormat settings, Matrix                  : Default (H.263)\nCodec ID                                 : XVID\nCodec ID/Hint                            : XviD\nDuration                                 : 1h 37mn\nBit rate                                 : 1 550 Kbps\nWidth                                    : 640 pixels\nHeight                                   : 480 pixels\nDisplay aspect ratio                     : 4:3\nFrame rate                               : 29.970 fps\nOriginal frame rate                      : 29.000 fps\nColor space                              : YUV\nChroma subsampling                       : 4:2:0\nBit depth                                : 8 bits\nScan type                                : Progressive\nCompression mode                         : Lossy\nBits/(Pixel*Frame)                       : 0.168\nStream size                              : 1.05 GiB (92%)\nWriting library                          : XviD 1.2.1 (UTC 2008-12-04)\n\nAudio\nID                                       : 1\nFormat                                   : MPEG Audio\nFormat version                           : Version 1\nFormat profile                           : Layer 3\nMode                                     : Joint stereo\nMode extension                           : MS Stereo\nCodec ID                                 : 55\nCodec ID/Hint                            : MP3\nDuration                                 : 1h 37mn\nBit rate mode                            : Constant\nBit rate                                 : 128 Kbps\nChannel(s)                               : 2 channels\nSampling rate                            : 44.1 KHz\nCompression mode                         : Lossy\nStream size                              : 88.9 MiB (8%)\nAlignment                                : Aligned on interleaves\nInterleave, duration                     : 26 ms (0.78 video frame)\nWriting library                          : LAME3.98.2\n\n\n\n\n-------------------------------------------------------------------------------\nGenerated with Cool NFO Creator - http://fly.to/coolbeans\n-------------------------------------------------------------------------------\n","torrent":{"xt":"urn:btih:391a81d463ffcc07ddbb0ea5672b77f6b2e8bc1d","amp;dn":"Fairview+Falls+%282011%29+WEBRip","amp;tr":["udp%3A%2F%2Ftracker.openbittorrent.com%3A80","udp%3A%2F%2Fopen.demonii.com%3A1337","udp%3A%2F%2Ftracker.coppersurfer.tk%3A6969","udp%3A%2F%2Fexodus.desync.com%3A6969"],"infoHash":"391a81d463ffcc07ddbb0ea5672b77f6b2e8bc1d","infoHashBuffer":{"type":"Buffer","data":[57,26,129,212,99,255,204,7,221,187,14,165,103,43,119,246,178,232,188,29]},"announce":[],"urlList":[]}}